<svg width="180" height="180" viewBox="0 0 180 180" fill="none" xmlns="http://www.w3.org/2000/svg">
<path d="M157.2 7.4C154.95 9.25 145.1 17.25 135.3 25.25C125.5 33.2 117.7 39.8 117.95 39.9C118.2 40 121.4 39.7 125.05 39.3C128.7 38.85 131.75 38.6 131.85 38.7C131.95 38.8 130.95 41 129.6 43.55C121.65 58.75 113.35 74.85 106.3 88.7C103.35 94.5 100.85 99.3 100.75 99.4C100.6 99.55 99.7003 97.9 98.7003 95.7C95.6003 88.9 91.9503 80.9 89.9503 76.6C88.8503 74.35 88.0003 72.4 88.0003 72.3C88.0003 72.05 82.4503 60.1 81.3503 58C80.3003 55.9 70.8003 53.4 61.3003 52.7L56.5003 52.35L60.3003 60.55C62.4003 65.05 64.6003 69.85 65.2503 71.25C65.8503 72.6 68.0003 77.25 70.0003 81.5C71.9503 85.75 74.1503 90.5 74.8503 92C75.5503 93.5 76.8503 96.3 77.7503 98.25C84.1503 111.95 88.0003 120.5 88.0003 121.05C88.0003 123.45 79.5503 130.45 73.0003 133.5C67.9003 135.9 58.6503 138.05 56.7003 137.3C56.3003 137.15 56.0003 137.15 56.0003 137.3C56.0003 137.4 56.6003 137.75 57.4003 138.05C65.0003 140.95 76.8503 141.05 86.2503 138.25C99.2503 134.4 111.45 123.95 121.35 108.25C124.8 102.75 125.75 100.95 135.3 82.2C148 57.15 152.55 48.3 152.95 47.85C153.15 47.65 155.1 49.75 157.3 52.5C159.45 55.25 161.4 57.5 161.65 57.5C161.85 57.5 162 45.45 162 30.75C162 16.05 161.85 4 161.65 4C161.4 4 159.4 5.55 157.2 7.4Z" fill="#F54900"/>
<path d="M44.2503 58.45C30.5003 64.9 18.9503 77.8 13.7503 92.4C8.45032 107.4 9.70032 125.8 17.0003 139.25C25.7003 155.3 38.8503 165.4 57.0003 170.15C62.7503 171.65 78.0003 171.75 82.7503 170.3C93.2003 167.15 98.2503 164.6 104.85 159.1C115.1 150.5 122.35 139.9 130.95 120.7C134.65 112.5 134.65 111.45 131 116.85C125.9 124.5 121.7 129 112.9 136.35C111.75 137.3 107.3 140.25 103.45 142.65C100.45 144.5 92.4003 147.55 87.3003 148.75C67.8003 153.45 51.4503 148.85 41.0003 135.7C35.1503 128.35 32.5003 120.9 32.5003 111.85C32.5003 100.5 36.1503 92.1 44.6003 84.25C48.7003 80.45 53.3503 77.3 55.7503 76.7C56.4503 76.55 57.0003 76.3 57.0003 76.15C57.0003 76.05 55.8003 73.4 54.3003 70.35C52.8003 67.25 50.8003 63 49.8503 60.85C48.8503 58.75 47.9003 57 47.6503 57C47.4503 57 45.9003 57.65 44.2503 58.45Z" fill="#F54900"/>
</svg>
